<svg viewBox="0 0 219 250" fill="none" xmlns="http://www.w3.org/2000/svg">
<path d="M150.954 144.727L143.67 152.002L117.615 125.537L124.898 118.652C132.084 111.475 143.768 111.475 150.954 118.652C158.14 125.879 158.14 137.5 150.954 144.727ZM71.4194 172.119L106.127 137.012L132.622 163.037L97.4746 198.193C95.4703 199.756 92.9284 201.611 90.1908 202.295L72.2993 206.738C69.6107 207.422 66.8243 206.641 64.869 204.688C62.9136 202.783 62.1315 199.951 62.8158 197.266L67.2643 179.395C67.9487 176.66 68.9752 174.121 71.4194 172.119ZM62.5714 0C69.073 0 74.3036 5.24902 74.3036 11.7188V31.25H144.696V11.7188C144.696 5.24902 149.927 0 156.429 0C162.93 0 168.161 5.24902 168.161 11.7188V31.25H187.714C204.97 31.25 219 45.2393 219 62.5V218.75C219 235.986 204.97 250 187.714 250H31.2857C14.0052 250 0 235.986 0 218.75V62.5C0 45.2393 14.0052 31.25 31.2857 31.25H50.8393V11.7188C50.8393 5.24902 56.0699 0 62.5714 0ZM195.536 93.75H23.4643V218.75C23.4643 223.047 26.9644 226.562 31.2857 226.562H187.714C192.016 226.562 195.536 223.047 195.536 218.75V93.75Z" fill="#433F3F"/>
</svg>
