<svg viewBox="0 0 37 43" fill="none" xmlns="http://www.w3.org/2000/svg">
<path d="M25.5036 24.893L24.273 26.1443L19.871 21.5924L21.1016 20.4082C22.3156 19.1736 24.2895 19.1736 25.5036 20.4082C26.7176 21.6512 26.7176 23.65 25.5036 24.893ZM12.0663 29.6045L17.9301 23.566L22.4065 28.0424L16.4683 34.0893C16.1297 34.358 15.7002 34.6772 15.2377 34.7947L12.215 35.559C11.7607 35.6766 11.29 35.5422 10.9596 35.2063C10.6292 34.8787 10.4971 34.3916 10.6127 33.9297L11.3643 30.8559C11.4799 30.3855 11.6533 29.9488 12.0663 29.6045ZM10.5714 0C11.6699 0 12.5536 0.902832 12.5536 2.01562V5.375H24.4464V2.01562C24.4464 0.902832 25.3301 0 26.4286 0C27.527 0 28.4107 0.902832 28.4107 2.01562V5.375H31.7143C34.6297 5.375 37 7.78115 37 10.75V37.625C37 40.5896 34.6297 43 31.7143 43H5.28571C2.36618 43 0 40.5896 0 37.625V10.75C0 7.78115 2.36618 5.375 5.28571 5.375H8.58929V2.01562C8.58929 0.902832 9.47299 0 10.5714 0ZM33.0357 16.125H3.96429V37.625C3.96429 38.3641 4.55562 38.9688 5.28571 38.9688H31.7143C32.4411 38.9688 33.0357 38.3641 33.0357 37.625V16.125Z" fill="#C86FAE"/>
</svg>
