<svg viewBox="0 0 38 38" fill="none" xmlns="http://www.w3.org/2000/svg">
<path d="M29.6881 8.81719V1.9334C26.094 2.84406 23.7429 2.20764 21.3763 1.42864V7.72239C23.6175 8.31324 25.8588 8.90395 28.5007 8.90395C28.857 8.83945 29.2577 8.86914 29.6881 8.81719ZM38 13.0625V6.53125C35.338 7.60594 32.0318 8.55148 29.6881 8.82016V15.3514C32.0333 15.0813 35.3358 14.1387 38 13.0625ZM36.5232 26.7855C37.4286 26.4145 38 25.5609 38 24.648V19.5938C35.338 20.6684 32.0318 21.614 29.6881 21.8827V28.4547C31.6771 28.3219 33.9034 27.8395 36.5232 26.7855ZM4.7526 15.4375V8.90625C8.02687 7.39664 10.7067 6.76207 13.0644 6.6025V0.118898C10.8529 0.320328 8.18866 0.959648 4.7526 2.4032V2.375C4.7526 1.05762 3.69506 0 2.37778 0C1.0605 0 0.00296859 1.05762 0.00296859 2.375L0 36.8125C0 37.4619 0.538044 38 1.18741 38H3.56519C4.21455 38 4.7526 37.4656 4.7526 36.8125V21.9688C8.02687 20.4591 10.7067 19.8246 13.0644 19.665V13.1338C10.7045 13.2926 8.02539 13.9309 4.7526 15.4375ZM21.3763 14.25V7.71875C18.8115 7.04269 16.2333 6.38504 13.0644 6.59953V13.1308C16.2333 12.9215 18.8085 13.5746 21.3763 14.25ZM28.5007 15.3707C25.8588 15.3707 23.6175 14.7798 21.3763 14.1891V20.7204C23.6175 21.3112 25.8588 21.902 28.5007 21.902C28.8538 21.902 29.2599 21.8677 29.6881 21.8185V15.2872C29.2577 15.4004 28.857 15.3707 28.5007 15.3707ZM13.0644 19.6012V26.1436C16.2296 25.9308 18.8137 26.5749 21.3763 27.2502V20.7812C18.8085 20.1059 16.2333 19.4527 13.0644 19.6012Z" fill="#C86FAE"/>
<path opacity="0.4" d="M4.75259 28.5003C8.03058 26.9885 10.7045 26.3665 13.0644 26.2085V19.6015C10.7045 19.8242 8.02538 20.4624 4.75259 21.9691V28.5003ZM4.75259 8.90658V15.4378C8.02687 13.9282 10.7067 13.2937 13.0644 13.1341V6.60283C10.7045 6.7624 8.02538 7.39697 4.75259 8.90658ZM13.0644 13.0703V19.6015C16.2333 19.3872 18.8115 20.0448 21.3763 20.7207V14.1895C18.8085 13.5749 16.2333 12.9218 13.0644 13.0703ZM21.3763 7.71908V1.42904C19.0453 0.661622 16.6645 -0.20748 13.0644 0.119825V6.60358C16.2333 6.38908 18.8085 7.04666 21.3763 7.71908ZM21.3763 20.7816V27.3114C23.9455 27.9886 26.5148 28.6644 29.6881 28.4514V21.88C29.2602 21.9293 28.854 21.9635 28.5007 21.9635C25.8588 21.9023 23.6175 21.3753 21.3763 20.7816ZM28.5007 8.83979C25.8588 8.83979 23.6175 8.24893 21.3763 7.65822V14.1895C23.6175 14.7803 25.8588 15.371 28.5007 15.371C28.8538 15.371 29.2599 15.3368 29.6881 15.2875V8.75629C29.2577 8.86947 28.857 8.83979 28.5007 8.83979ZM38 19.5941V13.0628C35.338 14.1375 32.0318 15.0831 29.6881 15.3517V21.883C32.0333 21.6128 35.3358 20.6703 38 19.5941ZM38 2.28182C38 0.426348 35.8619 -0.537753 34.0541 0.315762C32.3969 1.09877 30.9646 1.6094 29.6881 1.93373V8.82123C32.0333 8.55033 35.3358 7.60776 38 6.53158V2.28182Z" fill="#EBAED9"/>
</svg>
