<svg viewBox="0 0 240 213" fill="none" xmlns="http://www.w3.org/2000/svg">
<path d="M180 49.4227V10.8372C159.821 15.9417 146.621 12.3744 133.333 8.00788V43.286C145.917 46.5979 158.5 49.909 173.333 49.909C175.333 49.5475 177.583 49.7139 180 49.4227ZM226.667 73.2188V36.6094C211.721 42.6333 193.158 47.9333 180 49.4393V86.0487C193.167 84.5344 211.708 79.251 226.667 73.2188ZM218.375 150.14C223.458 148.06 226.667 143.276 226.667 138.159V109.828C211.721 115.852 193.158 121.152 180 122.658V159.496C191.167 158.752 203.667 156.047 218.375 150.14ZM40 86.5312V49.9219C58.3833 41.4601 73.4292 37.9032 86.6667 37.0088V0.666457C74.25 1.79552 59.2917 5.37908 40 13.4706V13.3125C40 5.92822 34.0625 0 26.6667 0C19.2708 0 13.3333 5.92822 13.3333 13.3125L13.3167 206.344C13.3167 209.984 16.3375 213 19.9833 213H33.3333C36.9792 213 40 210.005 40 206.344V123.141C58.3833 114.679 73.4292 111.122 86.6667 110.227V73.6181C73.4167 74.5084 58.375 78.0861 40 86.5312ZM133.333 79.875V43.2656C118.933 39.4761 104.458 35.7898 86.6667 36.9921V73.6015C104.458 72.4283 118.917 76.0893 133.333 79.875ZM173.333 86.1568C158.5 86.1568 145.917 82.8449 133.333 79.5339V116.143C145.917 119.455 158.5 122.766 173.333 122.766C175.316 122.766 177.596 122.574 180 122.298V85.6888C177.583 86.3232 175.333 86.1568 173.333 86.1568ZM86.6667 109.87V146.542C104.437 145.349 118.946 148.959 133.333 152.744V116.484C118.917 112.699 104.458 109.038 86.6667 109.87Z" fill="#433F3F"/>
<path opacity="0.4" d="M40 159.75C58.4042 151.276 73.4167 147.79 86.6667 146.904V109.87C73.4167 111.118 58.375 114.696 40 123.141V159.75ZM40 49.9221V86.5314C58.3833 78.0697 73.4292 74.5128 86.6667 73.6183V37.0089C73.4167 37.9034 58.375 41.4603 40 49.9221ZM86.6667 73.2605V109.87C104.458 108.669 118.933 112.355 133.333 116.143V79.5341C118.917 76.0894 104.458 72.4285 86.6667 73.2605ZM133.333 43.2658V8.0085C120.246 3.70689 106.879 -1.16465 86.6667 0.66998V37.0131C104.458 35.8108 118.917 39.4967 133.333 43.2658ZM133.333 116.485V153.086C147.758 156.882 162.183 160.67 180 159.476V122.642C177.598 122.918 175.317 123.11 173.333 123.11C158.5 122.766 145.917 119.813 133.333 116.485ZM173.333 49.5477C158.5 49.5477 145.917 46.2358 133.333 42.9247V79.5341C145.917 82.846 158.5 86.157 173.333 86.157C175.316 86.157 177.596 85.9653 180 85.689V49.0796C177.583 49.7141 175.333 49.5477 173.333 49.5477ZM226.667 109.828V73.2189C211.721 79.2429 193.158 84.5429 180 86.0489V122.658C193.167 121.144 211.708 115.861 226.667 109.828ZM226.667 12.7885C226.667 2.38812 214.662 -3.01592 204.512 1.76826C195.208 6.15723 187.167 9.01941 180 10.8374V49.4436C193.167 47.9252 211.708 42.6418 226.667 36.6096V12.7885Z" fill="black"/>
</svg>
