<svg viewBox="0 0 50 50" fill="none" xmlns="http://www.w3.org/2000/svg">
<path d="M21.8468 38.2712C21.4562 32.7244 17.0516 28.4471 11.5631 28.1444C13.6531 23.4667 17.2665 15.7812 20.2354 11.3964C28.2338 -0.397415 40.1484 -0.795069 47.2581 0.515175C48.4008 0.72406 49.2797 1.60452 49.4848 2.74026C50.7935 9.85348 50.4028 21.7675 38.6054 29.7654C34.24 32.7146 26.5833 36.2205 21.8468 38.2712ZM37.5018 8.59373C35.3435 8.59373 33.5954 10.3418 33.5954 12.4999C33.5954 14.6581 35.3435 16.4062 37.5018 16.4062C39.6601 16.4062 41.4083 14.6581 41.4083 12.4999C41.4083 10.3418 39.6601 8.59373 37.5018 8.59373Z" fill="#C86FAE"/>
<path opacity="0.4" d="M2.256 28.1249C1.49717 28.1249 0.716277 27.6659 0.301121 26.9335C-0.114035 26.1913 -0.0989954 25.205 0.340576 24.5605L5.49443 16.084C6.7689 13.9844 9.04733 12.6953 11.5045 12.6953H19.3955C16.6121 17.1777 13.4675 23.8769 11.5728 28.1249H2.256ZM37.2186 38.4959C37.2186 40.9568 36.0173 43.2322 33.9176 44.5115L25.4407 49.6579C24.7082 50.0974 23.8097 50.1169 23.0675 49.697C22.3351 49.2868 21.7882 48.5056 21.7882 47.656V38.2615C26.1634 36.4061 32.8531 33.3495 37.2186 30.6053V38.4959ZM16.2606 45.8982C11.4263 50.7321 0.0465681 49.9509 0.0465681 49.9509C0.0465681 49.9509 -0.733986 38.4861 4.09983 33.7401C7.45839 30.3807 12.901 30.3807 16.2606 33.7401C19.6201 37.0994 19.6201 42.5388 16.2606 45.8982ZM11.6998 38.3006C10.5767 37.1873 8.77095 37.1873 7.65469 38.3006C6.04719 39.9119 6.30697 43.6912 6.30697 43.6912C6.30697 43.6912 10.0884 43.9548 11.6998 42.3435C12.8131 41.2303 12.8131 39.4236 11.6998 38.3006Z" fill="#EBAED9"/>
</svg>
