<svg viewBox="0 0 221 221" fill="none" xmlns="http://www.w3.org/2000/svg">
<path d="M22.5878 22.5965C22.5878 22.6008 22.5921 22.5965 22.5878 22.5965C13.1521 32.0408 13.1478 47.3511 22.5878 56.804C32.0277 66.2137 47.351 66.2137 56.7608 56.804C66.2007 47.364 66.2007 32.0623 56.7608 22.6224C47.351 13.1608 32.0321 13.1608 22.5878 22.5965ZM110.112 82.8751C95.2631 82.8751 82.4865 95.2632 82.875 110.5C82.875 125.737 95.2631 138.125 110.5 137.737C125.737 137.348 138.125 125.737 138.125 110.5C137.737 95.2632 125.737 82.8751 110.112 82.8751ZM169.117 81.1917C177.206 73.0984 177.197 59.9895 169.108 51.8962C161.015 43.803 147.906 43.7987 139.813 51.889C131.72 59.9822 131.715 73.0998 139.808 81.1931C147.88 89.3065 161.002 89.3065 169.117 81.1917ZM198.425 164.196C188.985 154.756 173.679 154.756 164.239 164.194C154.799 173.633 154.799 188.94 164.238 198.38C173.676 207.82 188.984 207.82 198.424 198.381C198.424 198.38 198.424 198.381 198.424 198.381C207.835 188.972 207.835 173.649 198.425 164.196Z" fill="#433F3F"/>
<path opacity="0.4" d="M169.117 81.1916C164.55 85.7583 158.404 87.4547 152.438 86.8633C162.793 105.281 160.367 129.035 144.712 144.315C125.936 163.445 95.2027 163.717 76.081 144.943C56.9593 126.169 56.6313 95.4357 75.4077 76.7025C90.8561 60.9649 114.976 57.6024 134.111 68.5445C133.525 62.5878 135.223 56.4715 139.787 51.9091C140.694 51.0009 141.835 50.5731 142.857 49.8691C132.731 44.465 121.685 41.4478 110.497 41.4478C72.3862 41.4418 41.4376 72.3429 41.4419 110.5C41.4444 148.64 72.3646 179.174 110.504 179.174C128.819 179.172 146.378 171.892 159.323 158.943C181.345 136.921 185.079 103.866 171.137 77.7514C170.455 79.1628 170.023 80.2851 169.117 81.1916ZM145.42 193.202C111.752 207.382 72.861 199.798 47.0057 173.981C16.9722 143.952 12.7809 97.7968 34.2723 63.1792C27.0639 61.6382 21.0339 56.7607 17.9649 50.0703C-10.0788 92.9236 -5.29186 150.988 32.3558 188.238C65.208 221.177 115.188 229.922 157.273 210.088C156.327 209.31 155.34 208.652 154.454 207.768C150.34 203.95 147.189 198.814 145.42 193.202ZM188.67 32.373C155.818 -0.565491 106.184 -9.31053 63.7102 10.5234C64.6546 11.3016 65.644 11.9594 66.5275 12.843C70.6721 17.0407 73.7877 22.1621 75.5833 27.7821C109.251 13.6027 148.142 21.1866 173.997 47.003C204.031 77.0323 208.222 123.188 186.731 157.805C193.935 159.35 199.969 164.215 203.034 170.91C231.057 128.068 226.309 70.0121 188.67 32.373Z" fill="black"/>
</svg>
