<svg viewBox="0 0 49 49" fill="none" xmlns="http://www.w3.org/2000/svg">
<path d="M5.00792 5.01751C5.00792 5.01847 5.00888 5.01751 5.00792 5.01751C2.91581 7.11535 2.91485 10.5162 5.00792 12.6159C7.10099 14.7061 10.4985 14.7061 12.5849 12.6159C14.6779 10.5191 14.6779 7.12015 12.5849 5.02327C10.4985 2.92159 7.10194 2.92159 5.00792 5.01751ZM24.414 18.4071C21.1218 18.4071 18.2889 21.1588 18.375 24.5433C18.375 27.9279 21.1218 30.6796 24.5001 30.5933C27.8785 30.507 30.6253 27.9279 30.6253 24.5433C30.5391 21.1588 27.8785 18.4071 24.414 18.4071ZM37.4969 18.0331C39.2904 16.2354 39.2885 13.3235 37.495 11.5258C35.7006 9.72806 32.794 9.7271 30.9995 11.5242C29.2051 13.3219 29.2041 16.2357 30.9984 18.0334C32.7882 19.8357 35.6976 19.8357 37.4969 18.0331ZM43.9953 36.4707C41.9022 34.3738 38.5085 34.3738 36.4154 36.4703C34.3223 38.5669 34.3223 41.9671 36.415 44.064C38.5077 46.1609 41.9018 46.1609 43.9949 44.0642C43.9949 44.064 43.9949 44.0642 43.9949 44.0642C46.0816 41.9742 46.0816 38.5705 43.9953 36.4707Z" fill="#C86FAE"/>
<path opacity="0.4" d="M37.4969 18.0329C36.4844 19.0473 35.1215 19.4241 33.7989 19.2928C36.0949 23.384 35.557 28.6602 32.0858 32.0543C27.9226 36.3037 21.1084 36.3641 16.8687 32.1938C12.629 28.0236 12.5562 21.197 16.7194 17.0358C20.1447 13.54 25.4927 12.7931 29.7353 15.2237C29.6054 13.9005 29.9819 12.5419 30.9938 11.5285C31.195 11.3268 31.448 11.2317 31.6745 11.0754C29.4293 9.87495 26.9802 9.20475 24.4995 9.20475C16.0495 9.20341 9.18742 16.0674 9.18837 24.5431C9.18894 33.015 16.0447 39.7975 24.5012 39.7975C28.5619 39.7972 32.4552 38.1801 35.3254 35.3037C40.2083 30.4119 41.0361 23.0695 37.9448 17.2688C37.7936 17.5823 37.6979 17.8316 37.4969 18.0329ZM32.2427 42.9136C24.7778 46.0633 16.1547 44.3787 10.422 38.6441C3.76286 31.9738 2.83356 21.7214 7.59871 14.0319C6.00044 13.6896 4.66344 12.6062 3.98298 11.12C-2.23497 20.6389 -1.1736 33.5366 7.17378 41.811C14.4579 49.1276 25.5396 51.0701 34.8708 46.6644C34.6611 46.4916 34.4423 46.3455 34.2459 46.1491C33.3338 45.301 32.6351 44.1601 32.2427 42.9136ZM41.8324 7.18899C34.5483 -0.127564 23.5432 -2.07008 14.1258 2.33558C14.3352 2.50845 14.5546 2.65457 14.7505 2.85083C15.6694 3.78326 16.3602 4.92087 16.7583 6.16921C24.2233 3.01958 32.8464 4.70418 38.5791 10.4387C45.2382 17.109 46.1675 27.3614 41.4024 35.0509C42.9997 35.394 44.3376 36.4748 45.0172 37.9618C51.2306 28.4454 50.1778 15.5497 41.8324 7.18899Z" fill="#EBAED9"/>
</svg>
