<svg viewBox="0 0 216 216" fill="none" xmlns="http://www.w3.org/2000/svg">
<g clip-path="url(#clip0_173_62)">
<path d="M94.3734 165.333C92.6859 141.37 73.6594 122.892 49.95 121.585C58.9781 101.377 74.5875 68.1752 87.4125 49.233C121.964 -1.71685 173.433 -3.43472 204.145 2.22557C209.081 3.12796 212.878 6.93159 213.764 11.838C219.417 42.5674 217.73 94.0361 166.767 128.588C147.909 141.328 114.834 156.474 94.3734 165.333ZM162 37.1252C152.677 37.1252 145.125 44.6767 145.125 54.0002C145.125 63.3236 152.677 70.8752 162 70.8752C171.323 70.8752 178.875 63.3236 178.875 54.0002C178.875 44.6767 171.323 37.1252 162 37.1252Z" fill="#433F3F"/>
<path opacity="0.4" d="M9.7453 121.5C6.46733 121.5 3.09402 119.517 1.30063 116.353C-0.492761 113.147 -0.427792 108.886 1.47107 106.102L23.7347 69.4828C29.2401 60.4125 39.0825 54.8438 49.6969 54.8438H83.7844C71.7609 74.2078 58.1766 103.148 49.9922 121.5H9.7453ZM160.777 166.303C160.777 176.934 155.587 186.764 146.517 192.291L109.898 214.523C106.734 216.422 102.853 216.506 99.6469 214.692C96.4828 212.92 94.1203 209.545 94.1203 205.875V165.291C113.02 157.275 141.919 144.07 160.777 132.216V166.303ZM70.2422 198.281C49.3594 219.164 0.201012 215.789 0.201012 215.789C0.201012 215.789 -3.17082 166.261 17.7103 145.758C32.2186 131.245 55.7297 131.245 70.2422 145.758C84.7547 160.27 84.7547 183.769 70.2422 198.281ZM50.5406 165.459C45.6891 160.65 37.8886 160.65 33.0666 165.459C26.1225 172.42 27.2447 188.747 27.2447 188.747C27.2447 188.747 43.5797 189.886 50.5406 182.925C55.35 178.116 55.35 170.311 50.5406 165.459Z" fill="black"/>
</g>
<defs>
<clipPath id="clip0_173_62">
<rect width="216" height="216" fill="white"/>
</clipPath>
</defs>
</svg>
