<svg viewBox="0 0 203 232" fill="none" xmlns="http://www.w3.org/2000/svg">
<path d="M130.5 43.5C142.508 43.5 152.25 33.7578 152.25 21.75C152.25 9.74219 142.508 0 130.5 0C118.492 0 108.75 9.74219 108.75 21.75C108.75 33.7578 118.492 43.5 130.5 43.5ZM181.25 101.5H161.312L149.477 77.3711C143.813 65.8164 133.445 57.3203 121.496 54.2617L89.2656 44.6917C85.8672 43.8806 82.0609 43.4864 79.0703 43.4864C69.609 43.4864 60.3426 46.5722 52.6712 52.4492L34.664 66.2922C30.953 69.1016 29.0045 73.4062 29.0045 77.7563C29.0045 85.5092 35.1987 92.2653 43.5136 92.2653C46.5985 92.2653 49.7078 91.2875 52.3359 89.2674L70.2933 75.5015C72.9758 73.4679 76.1884 72.4261 79.1428 72.4261C80.0568 72.4261 80.9467 72.5256 81.7895 72.7262L88.4142 74.652L71.422 114.3C69.8265 117.948 69.1015 121.8 69.1015 125.606C69.1015 135.616 74.3079 145.326 83.3795 150.66L121.895 173.375L109.434 213.136C108.987 214.575 108.774 216.031 108.774 217.464C108.774 223.649 112.742 229.385 118.951 231.32C120.35 231.773 121.845 232 123.25 232C129.422 232 135.145 228.035 137.07 221.805L151.457 176.039C152.006 174.101 152.271 172.131 152.271 170.18C152.271 162.672 148.346 155.449 141.6 151.403L113.9 135.036L128.06 99.5198L137.236 118.325C140.877 125.697 148.58 130.5 156.373 130.5H181.25C189.234 130.5 195.75 123.984 195.75 116C195.75 107.98 189.225 101.5 181.25 101.5Z" fill="#433F3F"/>
<path opacity="0.4" d="M58.8156 143.867L52.0641 159.5H21.75C13.7659 159.5 7.25 166.016 7.25 174C7.25 181.984 13.7659 188.5 21.75 188.5H56.8672C65.5898 188.5 73.4062 183.289 76.8047 175.305L80.8262 166.016L75.9551 163.184C68.15 158.548 62.35 151.706 58.8156 143.867Z" fill="black"/>
</svg>
