<svg viewBox="0 0 41 50" fill="none" xmlns="http://www.w3.org/2000/svg">
<path d="M26.8077 9.375C29.4195 9.375 31.5385 7.27539 31.5385 4.6875C31.5385 2.09961 29.4195 0 26.8077 0C24.1959 0 22.0769 2.09961 22.0769 4.6875C22.0769 7.27539 24.1959 9.375 26.8077 9.375ZM37.8462 21.875H33.5096L30.9353 16.6748C29.7033 14.1846 27.4483 12.3535 24.8493 11.6943L17.8389 9.63184C17.0998 9.45703 16.2719 9.37207 15.6214 9.37207C13.5635 9.37207 11.548 10.0371 9.87942 11.3037L5.96274 14.2871C5.15555 14.8926 4.73175 15.8203 4.73175 16.7578C4.73175 18.4287 6.07903 19.8848 7.88757 19.8848C8.55855 19.8848 9.23485 19.674 9.80649 19.2387L13.7123 16.2719C14.2958 15.8336 14.9946 15.6091 15.6372 15.6091C15.836 15.6091 16.0295 15.6305 16.2128 15.6738L17.6537 16.0888L13.9578 24.6337C13.6108 25.4199 13.4531 26.25 13.4531 27.0703C13.4531 29.2275 14.5855 31.3203 16.5587 32.4697L24.9361 37.3652L22.2257 45.9346C22.1284 46.2445 22.082 46.5584 22.082 46.8672C22.082 48.2002 22.9451 49.4365 24.2957 49.8535C24.6 49.9512 24.9252 50 25.2308 50C26.5731 50 27.8179 49.1455 28.2368 47.8027L31.366 37.9395C31.4853 37.5217 31.543 37.0972 31.543 36.6768C31.543 35.0586 30.6894 33.502 29.222 32.6299L23.1971 29.1025L26.2771 21.4482L28.2728 25.501C29.0647 27.0898 30.7401 28.125 32.4353 28.125H37.8462C39.5827 28.125 41 26.7207 41 25C41 23.2715 39.5808 21.875 37.8462 21.875Z" fill="#C86FAE"/>
<path opacity="0.4" d="M11.2159 31.0059L9.74736 34.375H3.15385C1.41726 34.375 0 35.7793 0 37.5C0 39.2207 1.41726 40.625 3.15385 40.625H10.7921C12.6893 40.625 14.3894 39.502 15.1286 37.7813L16.0033 35.7793L14.9438 35.1689C13.2462 34.1699 11.9846 32.6953 11.2159 31.0059Z" fill="#EBAED9"/>
</svg>
