<svg width="25" height="25" viewBox="0 0 25 25" fill="none" xmlns="http://www.w3.org/2000/svg">
<path d="M12.5 0C14.8591 0 17.1246 0.655779 19.0867 1.87439C19.6732 2.23862 19.8533 3.0093 19.4891 3.59575C19.1249 4.18221 18.3542 4.36235 17.7677 3.99812C16.1988 3.02371 14.3895 2.5 12.5 2.5C6.97715 2.5 2.5 6.97715 2.5 12.5C2.5 18.0228 6.97715 22.5 12.5 22.5C18.0228 22.5 22.5 18.0228 22.5 12.5C22.5 11.7224 22.4115 10.9573 22.2379 10.2146C22.0809 9.54238 22.4985 8.87008 23.1707 8.713C23.843 8.55593 24.5153 8.97355 24.6724 9.6458C24.8894 10.5747 25 11.5306 25 12.5C25 19.4036 19.4036 25 12.5 25C5.59644 25 0 19.4036 0 12.5C0 5.59644 5.59644 0 12.5 0ZM23.5088 2.80332C23.9914 3.21945 24.0783 3.924 23.7342 4.44116L23.6392 4.56627L12.0896 17.9612L5.44173 12.3261C4.91512 11.8797 4.85009 11.0909 5.29648 10.5643C5.70854 10.0782 6.41233 9.98538 6.93236 10.3251L7.05827 10.419L11.8138 14.45L21.7459 2.93373C22.1967 2.41089 22.986 2.35251 23.5088 2.80332Z" fill="#9FE2DB"/>
</svg>
